<svg id="visual" viewBox="0 0 900 600" width="900" height="600" xmlns="http://www.w3.org/2000/svg" xmlns:xlink="http://www.w3.org/1999/xlink" version="1.1"><rect x="0" y="0" width="900" height="600" fill="#f8f9fa"></rect><path d="M0 371L15 367C30 363 60 355 90 354.2C120 353.3 150 359.7 180 364.2C210 368.7 240 371.3 270 376.2C300 381 330 388 360 385.2C390 382.3 420 369.7 450 367.7C480 365.7 510 374.3 540 377.2C570 380 600 377 630 380C660 383 690 392 720 396.7C750 401.3 780 401.7 810 400.5C840 399.3 870 396.7 885 395.3L900 394L900 601L885 601C870 601 840 601 810 601C780 601 750 601 720 601C690 601 660 601 630 601C600 601 570 601 540 601C510 601 480 601 450 601C420 601 390 601 360 601C330 601 300 601 270 601C240 601 210 601 180 601C150 601 120 601 90 601C60 601 30 601 15 601L0 601Z" fill="#49a879"></path><path d="M0 409L15 409.8C30 410.7 60 412.3 90 416.2C120 420 150 426 180 432.5C210 439 240 446 270 450.5C300 455 330 457 360 457.8C390 458.7 420 458.3 450 451.3C480 444.3 510 430.7 540 428.7C570 426.7 600 436.3 630 434.5C660 432.7 690 419.3 720 417.2C750 415 780 424 810 431.5C840 439 870 445 885 448L900 451L900 601L885 601C870 601 840 601 810 601C780 601 750 601 720 601C690 601 660 601 630 601C600 601 570 601 540 601C510 601 480 601 450 601C420 601 390 601 360 601C330 601 300 601 270 601C240 601 210 601 180 601C150 601 120 601 90 601C60 601 30 601 15 601L0 601Z" fill="#2b9260"></path><path d="M0 501L15 497.3C30 493.7 60 486.3 90 482.2C120 478 150 477 180 481.3C210 485.7 240 495.3 270 499.8C300 504.3 330 503.7 360 499.2C390 494.7 420 486.3 450 483.7C480 481 510 484 540 487.3C570 490.7 600 494.3 630 497.7C660 501 690 504 720 497.5C750 491 780 475 810 472.2C840 469.3 870 479.7 885 484.8L900 490L900 601L885 601C870 601 840 601 810 601C780 601 750 601 720 601C690 601 660 601 630 601C600 601 570 601 540 601C510 601 480 601 450 601C420 601 390 601 360 601C330 601 300 601 270 601C240 601 210 601 180 601C150 601 120 601 90 601C60 601 30 601 15 601L0 601Z" fill="#167b4d"></path><path d="M0 559L15 556.2C30 553.3 60 547.7 90 544.3C120 541 150 540 180 540.5C210 541 240 543 270 539.7C300 536.3 330 527.7 360 526.3C390 525 420 531 450 532.3C480 533.7 510 530.3 540 532.5C570 534.7 600 542.3 630 547.8C660 553.3 690 556.7 720 555.5C750 554.3 780 548.7 810 549C840 549.3 870 555.7 885 558.8L900 562L900 601L885 601C870 601 840 601 810 601C780 601 750 601 720 601C690 601 660 601 630 601C600 601 570 601 540 601C510 601 480 601 450 601C420 601 390 601 360 601C330 601 300 601 270 601C240 601 210 601 180 601C150 601 120 601 90 601C60 601 30 601 15 601L0 601Z" fill="#11633e"></path></svg>