<svg id="visual" viewBox="0 0 900 600" width="900" height="600" xmlns="http://www.w3.org/2000/svg" xmlns:xlink="http://www.w3.org/1999/xlink" version="1.1"><rect x="0" y="0" width="900" height="600" fill="#f8f9fa"></rect><path d="M0 499L21.5 504.7C43 510.3 86 521.7 128.8 525.5C171.7 529.3 214.3 525.7 257.2 517C300 508.3 343 494.7 385.8 495.8C428.7 497 471.3 513 514.2 516.7C557 520.3 600 511.7 642.8 509.2C685.7 506.7 728.3 510.3 771.2 508.7C814 507 857 500 878.5 496.5L900 493L900 601L878.5 601C857 601 814 601 771.2 601C728.3 601 685.7 601 642.8 601C600 601 557 601 514.2 601C471.3 601 428.7 601 385.8 601C343 601 300 601 257.2 601C214.3 601 171.7 601 128.8 601C86 601 43 601 21.5 601L0 601Z" fill="#198754" stroke-linecap="round" stroke-linejoin="miter"></path></svg>