<svg id="visual" viewBox="0 0 900 600" width="900" height="600" xmlns="http://www.w3.org/2000/svg" xmlns:xlink="http://www.w3.org/1999/xlink" version="1.1"><rect x="0" y="0" width="900" height="600" fill="#f8f9fa"></rect><path d="M0 545L11.5 543.5C23 542 46 539 69 540.8C92 542.7 115 549.3 138.2 551.8C161.3 554.3 184.7 552.7 207.8 549.8C231 547 254 543 277 542C300 541 323 543 346 545.5C369 548 392 551 415.2 548.7C438.3 546.3 461.7 538.7 484.8 537C508 535.3 531 539.7 554 541.7C577 543.7 600 543.3 623 541.2C646 539 669 535 692.2 532.7C715.3 530.3 738.7 529.7 761.8 533.3C785 537 808 545 831 546.5C854 548 877 543 888.5 540.5L900 538L900 601L888.5 601C877 601 854 601 831 601C808 601 785 601 761.8 601C738.7 601 715.3 601 692.2 601C669 601 646 601 623 601C600 601 577 601 554 601C531 601 508 601 484.8 601C461.7 601 438.3 601 415.2 601C392 601 369 601 346 601C323 601 300 601 277 601C254 601 231 601 207.8 601C184.7 601 161.3 601 138.2 601C115 601 92 601 69 601C46 601 23 601 11.5 601L0 601Z" fill="#198754" stroke-linecap="round" stroke-linejoin="miter"></path></svg>